<svg xmlns="http://www.w3.org/2000/svg" viewBox="0 0 215.1 162.9" style="enable-background:new 0 0 215.1 162.9" xml:space="preserve"><style>.st14{fill:none;stroke:#0561fc;stroke-width:7.1001}</style><g id="Layer_4"><path class="st14" d="M211.6 33.6v110.8c0 8.3-6.7 15-15 15h-178c-8.3 0-15-6.7-15-15V33.6"/><path d="M199.9 0H15.2C6.9 0 .2 6.7.2 15v14.9H215V15c0-8.3-6.7-15-15.1-15z" style="fill:#9ac7f7"/><path class="st14" d="M21.3 15.9h-5.1M32.1 15.9h-5M43 15.9h-5.1M82 113.1l-17.3-10-17.3-10 17.3-10 17.3-10M123.2 113.1l17.3-10 17.3-10-17.3-10-17.3-10M115.5 59.7l-26.4 66.9"/></g></svg>